<mxfile host="app.diagrams.net" agent="Mozilla/5.0 (Windows NT 10.0; Win64; x64) AppleWebKit/537.36 (KHTML, like Gecko) Chrome/138.0.0.0 Safari/537.36" version="26.2.12">
  <diagram name="페이지-1" id="nu9EeWYgbhiHNfgjCdOY">
    <mxGraphModel dx="2142" dy="811" grid="1" gridSize="10" guides="1" tooltips="1" connect="1" arrows="1" fold="1" page="1" pageScale="1" pageWidth="827" pageHeight="1169" math="0" shadow="0">
      <root>
        <mxCell id="0" />
        <mxCell id="1" parent="0" />
        <mxCell id="sR2NUPpZTcuUYpUYoaqi-4" value="client (Web Browser)" style="swimlane;whiteSpace=wrap;html=1;" vertex="1" parent="1">
          <mxGeometry x="-70" y="210" width="200" height="200" as="geometry" />
        </mxCell>
        <mxCell id="sR2NUPpZTcuUYpUYoaqi-1" value="" style="sketch=0;points=[[0,0,0],[0.25,0,0],[0.5,0,0],[0.75,0,0],[1,0,0],[0,1,0],[0.25,1,0],[0.5,1,0],[0.75,1,0],[1,1,0],[0,0.25,0],[0,0.5,0],[0,0.75,0],[1,0.25,0],[1,0.5,0],[1,0.75,0]];outlineConnect=0;fontColor=#232F3E;fillColor=#01A88D;strokeColor=#ffffff;dashed=0;verticalLabelPosition=bottom;verticalAlign=top;align=center;html=1;fontSize=12;fontStyle=0;aspect=fixed;shape=mxgraph.aws4.resourceIcon;resIcon=mxgraph.aws4.desktop_and_app_streaming;" vertex="1" parent="sR2NUPpZTcuUYpUYoaqi-4">
          <mxGeometry x="50" y="60" width="100" height="100" as="geometry" />
        </mxCell>
        <mxCell id="sR2NUPpZTcuUYpUYoaqi-5" value="server (Tomcat)" style="swimlane;whiteSpace=wrap;html=1;fontStyle=0" vertex="1" parent="1">
          <mxGeometry x="290" y="50" width="230" height="470" as="geometry" />
        </mxCell>
        <mxCell id="sR2NUPpZTcuUYpUYoaqi-2" value="" style="image;html=1;image=img/lib/clip_art/computers/Server_Tower_128x128.png" vertex="1" parent="sR2NUPpZTcuUYpUYoaqi-5">
          <mxGeometry x="30" y="40" width="80" height="80" as="geometry" />
        </mxCell>
        <mxCell id="sR2NUPpZTcuUYpUYoaqi-21" value="" style="rounded=1;whiteSpace=wrap;html=1;" vertex="1" parent="sR2NUPpZTcuUYpUYoaqi-5">
          <mxGeometry x="40" y="140" width="150" height="310" as="geometry" />
        </mxCell>
        <mxCell id="sR2NUPpZTcuUYpUYoaqi-8" value="" style="shape=image;imageAspect=0;aspect=fixed;verticalLabelPosition=bottom;verticalAlign=top;image=https://img.icons8.com/?size=100&amp;id=QFcVqyh6lBh6&amp;format=png&amp;color=000000;" vertex="1" parent="sR2NUPpZTcuUYpUYoaqi-5">
          <mxGeometry x="70" y="90" width="90" height="90" as="geometry" />
        </mxCell>
        <mxCell id="sR2NUPpZTcuUYpUYoaqi-22" value="HTTP request" style="text;html=1;align=center;verticalAlign=middle;whiteSpace=wrap;rounded=0;fontStyle=1;fontSize=20;" vertex="1" parent="sR2NUPpZTcuUYpUYoaqi-5">
          <mxGeometry x="65" y="230" width="100" height="30" as="geometry" />
        </mxCell>
        <mxCell id="sR2NUPpZTcuUYpUYoaqi-23" value="WebSocket Handler" style="text;html=1;align=center;verticalAlign=middle;whiteSpace=wrap;rounded=0;fontStyle=1;fontSize=20;" vertex="1" parent="sR2NUPpZTcuUYpUYoaqi-5">
          <mxGeometry x="65" y="330" width="100" height="30" as="geometry" />
        </mxCell>
        <mxCell id="sR2NUPpZTcuUYpUYoaqi-6" value="DB (Oracle)" style="swimlane;whiteSpace=wrap;html=1;" vertex="1" parent="1">
          <mxGeometry x="590" y="200" width="200" height="200" as="geometry" />
        </mxCell>
        <mxCell id="sR2NUPpZTcuUYpUYoaqi-11" value="" style="shape=image;imageAspect=0;aspect=fixed;verticalLabelPosition=bottom;verticalAlign=top;image=https://img.icons8.com/?size=100&amp;id=39913&amp;format=png&amp;color=000000;" vertex="1" parent="sR2NUPpZTcuUYpUYoaqi-6">
          <mxGeometry x="50" y="10" width="100" height="100" as="geometry" />
        </mxCell>
        <mxCell id="sR2NUPpZTcuUYpUYoaqi-3" value="" style="image;html=1;image=img/lib/clip_art/computers/Database_128x128.png" vertex="1" parent="sR2NUPpZTcuUYpUYoaqi-6">
          <mxGeometry x="60" y="80" width="80" height="80" as="geometry" />
        </mxCell>
        <mxCell id="sR2NUPpZTcuUYpUYoaqi-12" value="" style="shape=image;imageAspect=0;aspect=fixed;verticalLabelPosition=bottom;verticalAlign=top;image=https://img.icons8.com/?size=100&amp;id=17949&amp;format=png&amp;color=000000;" vertex="1" parent="1">
          <mxGeometry x="40" y="530" width="60" height="60" as="geometry" />
        </mxCell>
        <mxCell id="sR2NUPpZTcuUYpUYoaqi-13" value="" style="shape=image;imageAspect=0;aspect=fixed;verticalLabelPosition=bottom;verticalAlign=top;image=https://img.icons8.com/?size=100&amp;id=BH0XTdh770dG&amp;format=png&amp;color=000000;" vertex="1" parent="1">
          <mxGeometry x="130" y="530" width="70" height="70" as="geometry" />
        </mxCell>
        <mxCell id="sR2NUPpZTcuUYpUYoaqi-25" value="" style="endArrow=openThin;html=1;rounded=0;entryX=0;entryY=0.25;entryDx=0;entryDy=0;endFill=0;dashed=1;" edge="1" parent="1" target="sR2NUPpZTcuUYpUYoaqi-21">
          <mxGeometry width="50" height="50" relative="1" as="geometry">
            <mxPoint x="130" y="268" as="sourcePoint" />
            <mxPoint x="550" y="340" as="targetPoint" />
            <Array as="points" />
          </mxGeometry>
        </mxCell>
      </root>
    </mxGraphModel>
  </diagram>
</mxfile>
